<?xml version="1.0" encoding="UTF-8" standalone="no"?>
<!DOCTYPE svg PUBLIC "-//W3C//DTD SVG 1.1//EN"
 "http://www.w3.org/Graphics/SVG/1.1/DTD/svg11.dtd">
<!-- Generated by graphviz version 2.43.0 (0)
 -->
<!-- Title: G Pages: 1 -->
<svg width="963pt" height="728pt"
 viewBox="0.00 0.00 963.06 728.16" xmlns="http://www.w3.org/2000/svg" xmlns:xlink="http://www.w3.org/1999/xlink">
<g id="graph0" class="graph" transform="scale(1 1) rotate(0) translate(4 724.16)">
<title>G</title>
<polygon fill="white" stroke="transparent" points="-4,4 -4,-724.16 959.06,-724.16 959.06,4 -4,4"/>
<!-- 53 -->
<g id="node1" class="node">
<title>53</title>
<ellipse fill="none" stroke="black" cx="355.25" cy="-597.38" rx="27" ry="18"/>
<text text-anchor="middle" x="355.25" y="-593.68" font-family="Times,serif" font-size="14.00">53</text>
</g>
<!-- 54 -->
<g id="node2" class="node">
<title>54</title>
<ellipse fill="none" stroke="black" cx="395.08" cy="-552.9" rx="27" ry="18"/>
<text text-anchor="middle" x="395.08" y="-549.2" font-family="Times,serif" font-size="14.00">54</text>
</g>
<!-- 53&#45;&#45;54 -->
<g id="edge1" class="edge">
<title>53&#45;&#45;54</title>
<path fill="none" stroke="black" d="M369.18,-581.83C373.04,-577.52 377.23,-572.84 381.09,-568.52"/>
</g>
<!-- 55 -->
<g id="node3" class="node">
<title>55</title>
<ellipse fill="none" stroke="black" cx="293.2" cy="-561.22" rx="27" ry="18"/>
<text text-anchor="middle" x="293.2" y="-557.52" font-family="Times,serif" font-size="14.00">55</text>
</g>
<!-- 54&#45;&#45;55 -->
<g id="edge2" class="edge">
<title>54&#45;&#45;55</title>
<path fill="none" stroke="black" d="M368.05,-555.11C353.19,-556.32 334.83,-557.82 320.01,-559.03"/>
</g>
<!-- 17 -->
<g id="node4" class="node">
<title>17</title>
<ellipse fill="none" stroke="black" cx="907.67" cy="-283.94" rx="27" ry="18"/>
<text text-anchor="middle" x="907.67" y="-280.24" font-family="Times,serif" font-size="14.00">17</text>
</g>
<!-- 18 -->
<g id="node5" class="node">
<title>18</title>
<ellipse fill="none" stroke="black" cx="844.85" cy="-283.32" rx="27" ry="18"/>
<text text-anchor="middle" x="844.85" y="-279.62" font-family="Times,serif" font-size="14.00">18</text>
</g>
<!-- 17&#45;&#45;18 -->
<g id="edge3" class="edge">
<title>17&#45;&#45;18</title>
<path fill="none" stroke="black" d="M880.66,-283.67C877.87,-283.65 875.03,-283.62 872.23,-283.59"/>
</g>
<!-- 19 -->
<g id="node6" class="node">
<title>19</title>
<ellipse fill="none" stroke="black" cx="876.36" cy="-329.03" rx="27" ry="18"/>
<text text-anchor="middle" x="876.36" y="-325.33" font-family="Times,serif" font-size="14.00">19</text>
</g>
<!-- 18&#45;&#45;19 -->
<g id="edge4" class="edge">
<title>18&#45;&#45;19</title>
<path fill="none" stroke="black" d="M856.22,-299.82C859.04,-303.91 862.07,-308.3 864.89,-312.4"/>
</g>
<!-- 20 -->
<g id="node79" class="node">
<title>20</title>
<ellipse fill="none" stroke="black" cx="782.74" cy="-253.23" rx="27" ry="18"/>
<text text-anchor="middle" x="782.74" y="-249.53" font-family="Times,serif" font-size="14.00">20</text>
</g>
<!-- 18&#45;&#45;20 -->
<g id="edge70" class="edge">
<title>18&#45;&#45;20</title>
<path fill="none" stroke="black" d="M822.78,-272.63C816.92,-269.79 810.59,-266.73 804.74,-263.89"/>
</g>
<!-- 92 -->
<g id="node7" class="node">
<title>92</title>
<ellipse fill="none" stroke="black" cx="194.48" cy="-434.95" rx="27" ry="18"/>
<text text-anchor="middle" x="194.48" y="-431.25" font-family="Times,serif" font-size="14.00">92</text>
</g>
<!-- 96 -->
<g id="node8" class="node">
<title>96</title>
<ellipse fill="none" stroke="black" cx="263.13" cy="-368.47" rx="27" ry="18"/>
<text text-anchor="middle" x="263.13" y="-364.77" font-family="Times,serif" font-size="14.00">96</text>
</g>
<!-- 92&#45;&#45;96 -->
<g id="edge5" class="edge">
<title>92&#45;&#45;96</title>
<path fill="none" stroke="black" d="M210.06,-419.86C221.29,-408.98 236.39,-394.36 247.62,-383.49"/>
</g>
<!-- 94 -->
<g id="node11" class="node">
<title>94</title>
<ellipse fill="none" stroke="black" cx="198.98" cy="-478.95" rx="27" ry="18"/>
<text text-anchor="middle" x="198.98" y="-475.25" font-family="Times,serif" font-size="14.00">94</text>
</g>
<!-- 92&#45;&#45;94 -->
<g id="edge24" class="edge">
<title>92&#45;&#45;94</title>
<path fill="none" stroke="black" d="M196.34,-453.1C196.6,-455.65 196.87,-458.28 197.13,-460.84"/>
</g>
<!-- 98 -->
<g id="node9" class="node">
<title>98</title>
<ellipse fill="none" stroke="black" cx="184.28" cy="-355.86" rx="27" ry="18"/>
<text text-anchor="middle" x="184.28" y="-352.16" font-family="Times,serif" font-size="14.00">98</text>
</g>
<!-- 96&#45;&#45;98 -->
<g id="edge6" class="edge">
<title>96&#45;&#45;98</title>
<path fill="none" stroke="black" d="M236.88,-364.27C228.45,-362.92 219.13,-361.43 210.69,-360.08"/>
</g>
<!-- 99 -->
<g id="node42" class="node">
<title>99</title>
<ellipse fill="none" stroke="black" cx="92.24" cy="-355.83" rx="27" ry="18"/>
<text text-anchor="middle" x="92.24" y="-352.13" font-family="Times,serif" font-size="14.00">99</text>
</g>
<!-- 98&#45;&#45;99 -->
<g id="edge32" class="edge">
<title>98&#45;&#45;99</title>
<path fill="none" stroke="black" d="M157.17,-355.85C145.29,-355.85 131.38,-355.84 119.49,-355.84"/>
</g>
<!-- 93 -->
<g id="node10" class="node">
<title>93</title>
<ellipse fill="none" stroke="black" cx="231.18" cy="-522.98" rx="27" ry="18"/>
<text text-anchor="middle" x="231.18" y="-519.28" font-family="Times,serif" font-size="14.00">93</text>
</g>
<!-- 93&#45;&#45;94 -->
<g id="edge7" class="edge">
<title>93&#45;&#45;94</title>
<path fill="none" stroke="black" d="M219.19,-506.59C216.47,-502.87 213.59,-498.92 210.87,-495.21"/>
</g>
<!-- 95 -->
<g id="node12" class="node">
<title>95</title>
<ellipse fill="none" stroke="black" cx="164.07" cy="-531.91" rx="27" ry="18"/>
<text text-anchor="middle" x="164.07" y="-528.21" font-family="Times,serif" font-size="14.00">95</text>
</g>
<!-- 94&#45;&#45;95 -->
<g id="edge8" class="edge">
<title>94&#45;&#45;95</title>
<path fill="none" stroke="black" d="M187.93,-495.71C183.86,-501.89 179.24,-508.89 175.16,-515.08"/>
</g>
<!-- 82 -->
<g id="node13" class="node">
<title>82</title>
<ellipse fill="none" stroke="black" cx="192.67" cy="-300.32" rx="27" ry="18"/>
<text text-anchor="middle" x="192.67" y="-296.62" font-family="Times,serif" font-size="14.00">82</text>
</g>
<!-- 84 -->
<g id="node14" class="node">
<title>84</title>
<ellipse fill="none" stroke="black" cx="266.76" cy="-302.16" rx="27" ry="18"/>
<text text-anchor="middle" x="266.76" y="-298.46" font-family="Times,serif" font-size="14.00">84</text>
</g>
<!-- 82&#45;&#45;84 -->
<g id="edge9" class="edge">
<title>82&#45;&#45;84</title>
<path fill="none" stroke="black" d="M219.84,-301C226.28,-301.16 233.15,-301.33 239.59,-301.49"/>
</g>
<!-- 83 -->
<g id="node58" class="node">
<title>83</title>
<ellipse fill="none" stroke="black" cx="125.23" cy="-264.41" rx="27" ry="18"/>
<text text-anchor="middle" x="125.23" y="-260.71" font-family="Times,serif" font-size="14.00">83</text>
</g>
<!-- 82&#45;&#45;83 -->
<g id="edge49" class="edge">
<title>82&#45;&#45;83</title>
<path fill="none" stroke="black" d="M171.33,-288.96C163.46,-284.77 154.54,-280.02 146.66,-275.82"/>
</g>
<!-- 86 -->
<g id="node15" class="node">
<title>86</title>
<ellipse fill="none" stroke="black" cx="233.36" cy="-256.26" rx="27" ry="18"/>
<text text-anchor="middle" x="233.36" y="-252.56" font-family="Times,serif" font-size="14.00">86</text>
</g>
<!-- 84&#45;&#45;86 -->
<g id="edge10" class="edge">
<title>84&#45;&#45;86</title>
<path fill="none" stroke="black" d="M254.89,-285.85C251.74,-281.52 248.34,-276.84 245.19,-272.52"/>
</g>
<!-- 88 -->
<g id="node67" class="node">
<title>88</title>
<ellipse fill="none" stroke="black" cx="330.46" cy="-333.79" rx="27" ry="18"/>
<text text-anchor="middle" x="330.46" y="-330.09" font-family="Times,serif" font-size="14.00">88</text>
</g>
<!-- 84&#45;&#45;88 -->
<g id="edge74" class="edge">
<title>84&#45;&#45;88</title>
<path fill="none" stroke="black" d="M288.68,-313.05C295.16,-316.26 302.24,-319.78 308.71,-322.99"/>
</g>
<!-- 87 -->
<g id="node92" class="node">
<title>87</title>
<ellipse fill="none" stroke="black" cx="180.99" cy="-197.67" rx="27" ry="18"/>
<text text-anchor="middle" x="180.99" y="-193.97" font-family="Times,serif" font-size="14.00">87</text>
</g>
<!-- 86&#45;&#45;87 -->
<g id="edge91" class="edge">
<title>86&#45;&#45;87</title>
<path fill="none" stroke="black" d="M219.33,-240.56C211.81,-232.15 202.58,-221.83 195.06,-213.42"/>
</g>
<!-- 2 -->
<g id="node16" class="node">
<title>2</title>
<ellipse fill="none" stroke="black" cx="555.13" cy="-181.18" rx="27" ry="18"/>
<text text-anchor="middle" x="555.13" y="-177.48" font-family="Times,serif" font-size="14.00">2</text>
</g>
<!-- 4 -->
<g id="node17" class="node">
<title>4</title>
<ellipse fill="none" stroke="black" cx="617.21" cy="-224.11" rx="27" ry="18"/>
<text text-anchor="middle" x="617.21" y="-220.41" font-family="Times,serif" font-size="14.00">4</text>
</g>
<!-- 2&#45;&#45;4 -->
<g id="edge11" class="edge">
<title>2&#45;&#45;4</title>
<path fill="none" stroke="black" d="M574.09,-194.3C581.8,-199.62 590.67,-205.76 598.36,-211.08"/>
</g>
<!-- 3 -->
<g id="node40" class="node">
<title>3</title>
<ellipse fill="none" stroke="black" cx="528.29" cy="-133.04" rx="27" ry="18"/>
<text text-anchor="middle" x="528.29" y="-129.34" font-family="Times,serif" font-size="14.00">3</text>
</g>
<!-- 2&#45;&#45;3 -->
<g id="edge30" class="edge">
<title>2&#45;&#45;3</title>
<path fill="none" stroke="black" d="M545.59,-164.07C543.06,-159.53 540.33,-154.63 537.8,-150.09"/>
</g>
<!-- 6 -->
<g id="node18" class="node">
<title>6</title>
<ellipse fill="none" stroke="black" cx="606.37" cy="-137.17" rx="27" ry="18"/>
<text text-anchor="middle" x="606.37" y="-133.47" font-family="Times,serif" font-size="14.00">6</text>
</g>
<!-- 4&#45;&#45;6 -->
<g id="edge12" class="edge">
<title>4&#45;&#45;6</title>
<path fill="none" stroke="black" d="M614.97,-206.1C613.11,-191.18 610.47,-170.08 608.62,-155.16"/>
</g>
<!-- 8 -->
<g id="node53" class="node">
<title>8</title>
<ellipse fill="none" stroke="black" cx="557.92" cy="-268.16" rx="27" ry="18"/>
<text text-anchor="middle" x="557.92" y="-264.46" font-family="Times,serif" font-size="14.00">8</text>
</g>
<!-- 4&#45;&#45;8 -->
<g id="edge42" class="edge">
<title>4&#45;&#45;8</title>
<path fill="none" stroke="black" d="M599.1,-237.57C591.88,-242.93 583.58,-249.1 576.33,-254.48"/>
</g>
<!-- 7 -->
<g id="node82" class="node">
<title>7</title>
<ellipse fill="none" stroke="black" cx="578.28" cy="-88.94" rx="27" ry="18"/>
<text text-anchor="middle" x="578.28" y="-85.24" font-family="Times,serif" font-size="14.00">7</text>
</g>
<!-- 6&#45;&#45;7 -->
<g id="edge73" class="edge">
<title>6&#45;&#45;7</title>
<path fill="none" stroke="black" d="M596.55,-120.3C593.82,-115.63 590.87,-110.56 588.14,-105.88"/>
</g>
<!-- 68 -->
<g id="node19" class="node">
<title>68</title>
<ellipse fill="none" stroke="black" cx="338.86" cy="-145.33" rx="27" ry="18"/>
<text text-anchor="middle" x="338.86" y="-141.63" font-family="Times,serif" font-size="14.00">68</text>
</g>
<!-- 72 -->
<g id="node20" class="node">
<title>72</title>
<ellipse fill="none" stroke="black" cx="340.95" cy="-240.11" rx="27" ry="18"/>
<text text-anchor="middle" x="340.95" y="-236.41" font-family="Times,serif" font-size="14.00">72</text>
</g>
<!-- 68&#45;&#45;72 -->
<g id="edge13" class="edge">
<title>68&#45;&#45;72</title>
<path fill="none" stroke="black" d="M339.26,-163.6C339.63,-180.39 340.18,-205.13 340.55,-221.89"/>
</g>
<!-- 70 -->
<g id="node23" class="node">
<title>70</title>
<ellipse fill="none" stroke="black" cx="276.85" cy="-123.81" rx="27" ry="18"/>
<text text-anchor="middle" x="276.85" y="-120.11" font-family="Times,serif" font-size="14.00">70</text>
</g>
<!-- 68&#45;&#45;70 -->
<g id="edge16" class="edge">
<title>68&#45;&#45;70</title>
<path fill="none" stroke="black" d="M314.71,-136.95C310.22,-135.39 305.53,-133.76 301.04,-132.21"/>
</g>
<!-- 76 -->
<g id="node21" class="node">
<title>76</title>
<ellipse fill="none" stroke="black" cx="311.62" cy="-196.04" rx="27" ry="18"/>
<text text-anchor="middle" x="311.62" y="-192.34" font-family="Times,serif" font-size="14.00">76</text>
</g>
<!-- 72&#45;&#45;76 -->
<g id="edge14" class="edge">
<title>72&#45;&#45;76</title>
<path fill="none" stroke="black" d="M329.86,-223.45C327.53,-219.94 325.06,-216.23 322.73,-212.72"/>
</g>
<!-- 80 -->
<g id="node63" class="node">
<title>80</title>
<ellipse fill="none" stroke="black" cx="392.87" cy="-307.86" rx="27" ry="18"/>
<text text-anchor="middle" x="392.87" y="-304.16" font-family="Times,serif" font-size="14.00">80</text>
</g>
<!-- 72&#45;&#45;80 -->
<g id="edge56" class="edge">
<title>72&#45;&#45;80</title>
<path fill="none" stroke="black" d="M353.25,-256.17C361.41,-266.81 372.08,-280.73 380.3,-291.45"/>
</g>
<!-- 78 -->
<g id="node65" class="node">
<title>78</title>
<ellipse fill="none" stroke="black" cx="387.08" cy="-96.33" rx="27" ry="18"/>
<text text-anchor="middle" x="387.08" y="-92.63" font-family="Times,serif" font-size="14.00">78</text>
</g>
<!-- 76&#45;&#45;78 -->
<g id="edge61" class="edge">
<title>76&#45;&#45;78</title>
<path fill="none" stroke="black" d="M324.08,-179.57C338.15,-160.99 360.89,-130.95 374.85,-112.49"/>
</g>
<!-- 66 -->
<g id="node22" class="node">
<title>66</title>
<ellipse fill="none" stroke="black" cx="292.7" cy="-79.32" rx="27" ry="18"/>
<text text-anchor="middle" x="292.7" y="-75.62" font-family="Times,serif" font-size="14.00">66</text>
</g>
<!-- 66&#45;&#45;68 -->
<g id="edge15" class="edge">
<title>66&#45;&#45;68</title>
<path fill="none" stroke="black" d="M304.11,-95.63C311.16,-105.71 320.18,-118.61 327.26,-128.74"/>
</g>
<!-- 67 -->
<g id="node60" class="node">
<title>67</title>
<ellipse fill="none" stroke="black" cx="310.61" cy="-18" rx="27" ry="18"/>
<text text-anchor="middle" x="310.61" y="-14.3" font-family="Times,serif" font-size="14.00">67</text>
</g>
<!-- 66&#45;&#45;67 -->
<g id="edge51" class="edge">
<title>66&#45;&#45;67</title>
<path fill="none" stroke="black" d="M297.88,-61.58C300.24,-53.52 303.02,-43.99 305.38,-35.91"/>
</g>
<!-- 71 -->
<g id="node52" class="node">
<title>71</title>
<ellipse fill="none" stroke="black" cx="214.79" cy="-91.37" rx="27" ry="18"/>
<text text-anchor="middle" x="214.79" y="-87.67" font-family="Times,serif" font-size="14.00">71</text>
</g>
<!-- 70&#45;&#45;71 -->
<g id="edge41" class="edge">
<title>70&#45;&#45;71</title>
<path fill="none" stroke="black" d="M255.49,-112.65C249.32,-109.42 242.58,-105.9 236.4,-102.67"/>
</g>
<!-- 33 -->
<g id="node24" class="node">
<title>33</title>
<ellipse fill="none" stroke="black" cx="756.87" cy="-614.92" rx="27" ry="18"/>
<text text-anchor="middle" x="756.87" y="-611.22" font-family="Times,serif" font-size="14.00">33</text>
</g>
<!-- 34 -->
<g id="node25" class="node">
<title>34</title>
<ellipse fill="none" stroke="black" cx="692.44" cy="-599.07" rx="27" ry="18"/>
<text text-anchor="middle" x="692.44" y="-595.37" font-family="Times,serif" font-size="14.00">34</text>
</g>
<!-- 33&#45;&#45;34 -->
<g id="edge17" class="edge">
<title>33&#45;&#45;34</title>
<path fill="none" stroke="black" d="M731.4,-608.66C727.04,-607.58 722.51,-606.47 718.14,-605.39"/>
</g>
<!-- 35 -->
<g id="node26" class="node">
<title>35</title>
<ellipse fill="none" stroke="black" cx="718.3" cy="-663.22" rx="27" ry="18"/>
<text text-anchor="middle" x="718.3" y="-659.52" font-family="Times,serif" font-size="14.00">35</text>
</g>
<!-- 34&#45;&#45;35 -->
<g id="edge18" class="edge">
<title>34&#45;&#45;35</title>
<path fill="none" stroke="black" d="M699.51,-616.6C703.15,-625.65 707.59,-636.66 711.24,-645.71"/>
</g>
<!-- 36 -->
<g id="node68" class="node">
<title>36</title>
<ellipse fill="none" stroke="black" cx="623.96" cy="-553.47" rx="27" ry="18"/>
<text text-anchor="middle" x="623.96" y="-549.77" font-family="Times,serif" font-size="14.00">36</text>
</g>
<!-- 34&#45;&#45;36 -->
<g id="edge58" class="edge">
<title>34&#45;&#45;36</title>
<path fill="none" stroke="black" d="M673,-586.12C663.67,-579.91 652.52,-572.48 643.21,-566.29"/>
</g>
<!-- 45 -->
<g id="node27" class="node">
<title>45</title>
<ellipse fill="none" stroke="black" cx="767.06" cy="-402.54" rx="27" ry="18"/>
<text text-anchor="middle" x="767.06" y="-398.84" font-family="Times,serif" font-size="14.00">45</text>
</g>
<!-- 46 -->
<g id="node28" class="node">
<title>46</title>
<ellipse fill="none" stroke="black" cx="719.75" cy="-446.56" rx="27" ry="18"/>
<text text-anchor="middle" x="719.75" y="-442.86" font-family="Times,serif" font-size="14.00">46</text>
</g>
<!-- 45&#45;&#45;46 -->
<g id="edge19" class="edge">
<title>45&#45;&#45;46</title>
<path fill="none" stroke="black" d="M751.31,-417.2C746.25,-421.9 740.66,-427.11 735.6,-431.82"/>
</g>
<!-- 47 -->
<g id="node29" class="node">
<title>47</title>
<ellipse fill="none" stroke="black" cx="781.85" cy="-460.86" rx="27" ry="18"/>
<text text-anchor="middle" x="781.85" y="-457.16" font-family="Times,serif" font-size="14.00">47</text>
</g>
<!-- 46&#45;&#45;47 -->
<g id="edge20" class="edge">
<title>46&#45;&#45;47</title>
<path fill="none" stroke="black" d="M745.37,-452.46C748.98,-453.29 752.69,-454.15 756.29,-454.98"/>
</g>
<!-- 50 -->
<g id="node30" class="node">
<title>50</title>
<ellipse fill="none" stroke="black" cx="392.47" cy="-498.83" rx="27" ry="18"/>
<text text-anchor="middle" x="392.47" y="-495.13" font-family="Times,serif" font-size="14.00">50</text>
</g>
<!-- 52 -->
<g id="node31" class="node">
<title>52</title>
<ellipse fill="none" stroke="black" cx="457.12" cy="-509.01" rx="27" ry="18"/>
<text text-anchor="middle" x="457.12" y="-505.31" font-family="Times,serif" font-size="14.00">52</text>
</g>
<!-- 50&#45;&#45;52 -->
<g id="edge21" class="edge">
<title>50&#45;&#45;52</title>
<path fill="none" stroke="black" d="M418.76,-502.97C422.68,-503.59 426.72,-504.22 430.64,-504.84"/>
</g>
<!-- 51 -->
<g id="node98" class="node">
<title>51</title>
<ellipse fill="none" stroke="black" cx="330.34" cy="-509.57" rx="27" ry="18"/>
<text text-anchor="middle" x="330.34" y="-505.87" font-family="Times,serif" font-size="14.00">51</text>
</g>
<!-- 50&#45;&#45;51 -->
<g id="edge97" class="edge">
<title>50&#45;&#45;51</title>
<path fill="none" stroke="black" d="M366.12,-503.38C362.94,-503.93 359.7,-504.49 356.53,-505.04"/>
</g>
<!-- 52&#45;&#45;54 -->
<g id="edge22" class="edge">
<title>52&#45;&#45;54</title>
<path fill="none" stroke="black" d="M438.51,-522.18C430.65,-527.73 421.53,-534.19 413.68,-539.74"/>
</g>
<!-- 56 -->
<g id="node48" class="node">
<title>56</title>
<ellipse fill="none" stroke="black" cx="519.15" cy="-490.05" rx="27" ry="18"/>
<text text-anchor="middle" x="519.15" y="-486.35" font-family="Times,serif" font-size="14.00">56</text>
</g>
<!-- 52&#45;&#45;56 -->
<g id="edge37" class="edge">
<title>52&#45;&#45;56</title>
<path fill="none" stroke="black" d="M481.99,-501.41C486.03,-500.17 490.22,-498.89 494.27,-497.65"/>
</g>
<!-- 90 -->
<g id="node32" class="node">
<title>90</title>
<ellipse fill="none" stroke="black" cx="132.26" cy="-449.12" rx="27" ry="18"/>
<text text-anchor="middle" x="132.26" y="-445.42" font-family="Times,serif" font-size="14.00">90</text>
</g>
<!-- 90&#45;&#45;92 -->
<g id="edge23" class="edge">
<title>90&#45;&#45;92</title>
<path fill="none" stroke="black" d="M157.93,-443.27C161.54,-442.45 165.26,-441.6 168.87,-440.78"/>
</g>
<!-- 91 -->
<g id="node44" class="node">
<title>91</title>
<ellipse fill="none" stroke="black" cx="69.04" cy="-445.09" rx="27" ry="18"/>
<text text-anchor="middle" x="69.04" y="-441.39" font-family="Times,serif" font-size="14.00">91</text>
</g>
<!-- 90&#45;&#45;91 -->
<g id="edge34" class="edge">
<title>90&#45;&#45;91</title>
<path fill="none" stroke="black" d="M105.08,-447.39C102.14,-447.2 99.14,-447.01 96.2,-446.82"/>
</g>
<!-- 10 -->
<g id="node33" class="node">
<title>10</title>
<ellipse fill="none" stroke="black" cx="625.3" cy="-356.21" rx="27" ry="18"/>
<text text-anchor="middle" x="625.3" y="-352.51" font-family="Times,serif" font-size="14.00">10</text>
</g>
<!-- 12 -->
<g id="node34" class="node">
<title>12</title>
<ellipse fill="none" stroke="black" cx="601.68" cy="-312.19" rx="27" ry="18"/>
<text text-anchor="middle" x="601.68" y="-308.49" font-family="Times,serif" font-size="14.00">12</text>
</g>
<!-- 10&#45;&#45;12 -->
<g id="edge25" class="edge">
<title>10&#45;&#45;12</title>
<path fill="none" stroke="black" d="M616.1,-339.06C614.39,-335.87 612.6,-332.54 610.89,-329.36"/>
</g>
<!-- 11 -->
<g id="node56" class="node">
<title>11</title>
<ellipse fill="none" stroke="black" cx="660.5" cy="-400.34" rx="27" ry="18"/>
<text text-anchor="middle" x="660.5" y="-396.64" font-family="Times,serif" font-size="14.00">11</text>
</g>
<!-- 10&#45;&#45;11 -->
<g id="edge47" class="edge">
<title>10&#45;&#45;11</title>
<path fill="none" stroke="black" d="M638.01,-372.14C641.16,-376.09 644.54,-380.32 647.69,-384.28"/>
</g>
<!-- 14 -->
<g id="node35" class="node">
<title>14</title>
<ellipse fill="none" stroke="black" cx="687.34" cy="-314.51" rx="27" ry="18"/>
<text text-anchor="middle" x="687.34" y="-310.81" font-family="Times,serif" font-size="14.00">14</text>
</g>
<!-- 12&#45;&#45;14 -->
<g id="edge26" class="edge">
<title>12&#45;&#45;14</title>
<path fill="none" stroke="black" d="M628.78,-312.92C638.78,-313.19 650.11,-313.5 660.12,-313.77"/>
</g>
<!-- 15 -->
<g id="node86" class="node">
<title>15</title>
<ellipse fill="none" stroke="black" cx="723.99" cy="-358.54" rx="27" ry="18"/>
<text text-anchor="middle" x="723.99" y="-354.84" font-family="Times,serif" font-size="14.00">15</text>
</g>
<!-- 14&#45;&#45;15 -->
<g id="edge83" class="edge">
<title>14&#45;&#45;15</title>
<path fill="none" stroke="black" d="M700.57,-330.41C703.85,-334.35 707.37,-338.57 710.65,-342.52"/>
</g>
<!-- 41 -->
<g id="node36" class="node">
<title>41</title>
<ellipse fill="none" stroke="black" cx="713.51" cy="-490.57" rx="27" ry="18"/>
<text text-anchor="middle" x="713.51" y="-486.87" font-family="Times,serif" font-size="14.00">41</text>
</g>
<!-- 42 -->
<g id="node37" class="node">
<title>42</title>
<ellipse fill="none" stroke="black" cx="689.26" cy="-534.61" rx="27" ry="18"/>
<text text-anchor="middle" x="689.26" y="-530.91" font-family="Times,serif" font-size="14.00">42</text>
</g>
<!-- 41&#45;&#45;42 -->
<g id="edge27" class="edge">
<title>41&#45;&#45;42</title>
<path fill="none" stroke="black" d="M704.2,-507.47C702.39,-510.77 700.48,-514.23 698.66,-517.54"/>
</g>
<!-- 43 -->
<g id="node38" class="node">
<title>43</title>
<ellipse fill="none" stroke="black" cx="754.2" cy="-555.05" rx="27" ry="18"/>
<text text-anchor="middle" x="754.2" y="-551.35" font-family="Times,serif" font-size="14.00">43</text>
</g>
<!-- 42&#45;&#45;43 -->
<g id="edge28" class="edge">
<title>42&#45;&#45;43</title>
<path fill="none" stroke="black" d="M713.81,-542.34C718.98,-543.97 724.44,-545.69 729.61,-547.31"/>
</g>
<!-- 44 -->
<g id="node54" class="node">
<title>44</title>
<ellipse fill="none" stroke="black" cx="647.06" cy="-473.74" rx="27" ry="18"/>
<text text-anchor="middle" x="647.06" y="-470.04" font-family="Times,serif" font-size="14.00">44</text>
</g>
<!-- 42&#45;&#45;44 -->
<g id="edge44" class="edge">
<title>42&#45;&#45;44</title>
<path fill="none" stroke="black" d="M677.73,-517.98C671.77,-509.39 664.53,-498.94 658.58,-490.35"/>
</g>
<!-- 1 -->
<g id="node39" class="node">
<title>1</title>
<ellipse fill="none" stroke="black" cx="493.11" cy="-177.05" rx="27" ry="18"/>
<text text-anchor="middle" x="493.11" y="-173.35" font-family="Times,serif" font-size="14.00">1</text>
</g>
<!-- 1&#45;&#45;2 -->
<g id="edge29" class="edge">
<title>1&#45;&#45;2</title>
<path fill="none" stroke="black" d="M520.13,-178.85C522.74,-179.02 525.39,-179.2 528,-179.37"/>
</g>
<!-- 97 -->
<g id="node41" class="node">
<title>97</title>
<ellipse fill="none" stroke="black" cx="129.13" cy="-399.86" rx="27" ry="18"/>
<text text-anchor="middle" x="129.13" y="-396.16" font-family="Times,serif" font-size="14.00">97</text>
</g>
<!-- 97&#45;&#45;98 -->
<g id="edge31" class="edge">
<title>97&#45;&#45;98</title>
<path fill="none" stroke="black" d="M146.58,-385.94C153.02,-380.8 160.31,-374.99 166.76,-369.84"/>
</g>
<!-- 100 -->
<g id="node50" class="node">
<title>100</title>
<ellipse fill="none" stroke="black" cx="28.6" cy="-343.6" rx="28.7" ry="18"/>
<text text-anchor="middle" x="28.6" y="-339.9" font-family="Times,serif" font-size="14.00">100</text>
</g>
<!-- 99&#45;&#45;100 -->
<g id="edge39" class="edge">
<title>99&#45;&#45;100</title>
<path fill="none" stroke="black" d="M65.99,-350.78C62.7,-350.15 59.33,-349.5 56.03,-348.87"/>
</g>
<!-- 89 -->
<g id="node43" class="node">
<title>89</title>
<ellipse fill="none" stroke="black" cx="91.41" cy="-493.18" rx="27" ry="18"/>
<text text-anchor="middle" x="91.41" y="-489.48" font-family="Times,serif" font-size="14.00">89</text>
</g>
<!-- 89&#45;&#45;90 -->
<g id="edge33" class="edge">
<title>89&#45;&#45;90</title>
<path fill="none" stroke="black" d="M105.7,-477.77C109.65,-473.5 113.95,-468.87 117.91,-464.6"/>
</g>
<!-- 37 -->
<g id="node45" class="node">
<title>37</title>
<ellipse fill="none" stroke="black" cx="654.1" cy="-665.32" rx="27" ry="18"/>
<text text-anchor="middle" x="654.1" y="-661.62" font-family="Times,serif" font-size="14.00">37</text>
</g>
<!-- 38 -->
<g id="node46" class="node">
<title>38</title>
<ellipse fill="none" stroke="black" cx="630.39" cy="-597.48" rx="27" ry="18"/>
<text text-anchor="middle" x="630.39" y="-593.78" font-family="Times,serif" font-size="14.00">38</text>
</g>
<!-- 37&#45;&#45;38 -->
<g id="edge35" class="edge">
<title>37&#45;&#45;38</title>
<path fill="none" stroke="black" d="M647.87,-647.49C644.41,-637.6 640.12,-625.33 636.66,-615.42"/>
</g>
<!-- 39 -->
<g id="node47" class="node">
<title>39</title>
<ellipse fill="none" stroke="black" cx="588.82" cy="-641.52" rx="27" ry="18"/>
<text text-anchor="middle" x="588.82" y="-637.82" font-family="Times,serif" font-size="14.00">39</text>
</g>
<!-- 38&#45;&#45;39 -->
<g id="edge36" class="edge">
<title>38&#45;&#45;39</title>
<path fill="none" stroke="black" d="M615.85,-612.88C611.82,-617.15 607.45,-621.78 603.42,-626.05"/>
</g>
<!-- 60 -->
<g id="node49" class="node">
<title>60</title>
<ellipse fill="none" stroke="black" cx="475.87" cy="-573.47" rx="27" ry="18"/>
<text text-anchor="middle" x="475.87" y="-569.77" font-family="Times,serif" font-size="14.00">60</text>
</g>
<!-- 56&#45;&#45;60 -->
<g id="edge38" class="edge">
<title>56&#45;&#45;60</title>
<path fill="none" stroke="black" d="M510.18,-507.33C502.75,-521.65 492.25,-541.9 484.83,-556.21"/>
</g>
<!-- 62 -->
<g id="node78" class="node">
<title>62</title>
<ellipse fill="none" stroke="black" cx="480.79" cy="-629.77" rx="27" ry="18"/>
<text text-anchor="middle" x="480.79" y="-626.07" font-family="Times,serif" font-size="14.00">62</text>
</g>
<!-- 60&#45;&#45;62 -->
<g id="edge69" class="edge">
<title>60&#45;&#45;62</title>
<path fill="none" stroke="black" d="M477.46,-591.6C478.02,-598.02 478.65,-605.25 479.21,-611.68"/>
</g>
<!-- 69 -->
<g id="node51" class="node">
<title>69</title>
<ellipse fill="none" stroke="black" cx="243.03" cy="-167.84" rx="27" ry="18"/>
<text text-anchor="middle" x="243.03" y="-164.14" font-family="Times,serif" font-size="14.00">69</text>
</g>
<!-- 69&#45;&#45;70 -->
<g id="edge40" class="edge">
<title>69&#45;&#45;70</title>
<path fill="none" stroke="black" d="M255.43,-151.69C258.37,-147.87 261.51,-143.78 264.45,-139.95"/>
</g>
<!-- 8&#45;&#45;12 -->
<g id="edge43" class="edge">
<title>8&#45;&#45;12</title>
<path fill="none" stroke="black" d="M573.22,-283.56C577.56,-287.92 582.28,-292.67 586.6,-297.02"/>
</g>
<!-- 16 -->
<g id="node70" class="node">
<title>16</title>
<ellipse fill="none" stroke="black" cx="537.12" cy="-316.75" rx="27" ry="18"/>
<text text-anchor="middle" x="537.12" y="-313.05" font-family="Times,serif" font-size="14.00">16</text>
</g>
<!-- 8&#45;&#45;16 -->
<g id="edge84" class="edge">
<title>8&#45;&#45;16</title>
<path fill="none" stroke="black" d="M550.41,-285.7C548.5,-290.16 546.45,-294.94 544.55,-299.39"/>
</g>
<!-- 44&#45;&#45;46 -->
<g id="edge45" class="edge">
<title>44&#45;&#45;46</title>
<path fill="none" stroke="black" d="M670.86,-464.84C678.98,-461.81 688.05,-458.42 696.15,-455.39"/>
</g>
<!-- 9 -->
<g id="node55" class="node">
<title>9</title>
<ellipse fill="none" stroke="black" cx="580.99" cy="-400.25" rx="27" ry="18"/>
<text text-anchor="middle" x="580.99" y="-396.55" font-family="Times,serif" font-size="14.00">9</text>
</g>
<!-- 9&#45;&#45;10 -->
<g id="edge46" class="edge">
<title>9&#45;&#45;10</title>
<path fill="none" stroke="black" d="M596.49,-384.84C600.88,-380.48 605.66,-375.73 610.04,-371.38"/>
</g>
<!-- 81 -->
<g id="node57" class="node">
<title>81</title>
<ellipse fill="none" stroke="black" cx="130.62" cy="-311.8" rx="27" ry="18"/>
<text text-anchor="middle" x="130.62" y="-308.1" font-family="Times,serif" font-size="14.00">81</text>
</g>
<!-- 81&#45;&#45;82 -->
<g id="edge48" class="edge">
<title>81&#45;&#45;82</title>
<path fill="none" stroke="black" d="M156.93,-306.93C160.1,-306.35 163.34,-305.75 166.51,-305.16"/>
</g>
<!-- 65 -->
<g id="node59" class="node">
<title>65</title>
<ellipse fill="none" stroke="black" cx="243.5" cy="-35.28" rx="27" ry="18"/>
<text text-anchor="middle" x="243.5" y="-31.58" font-family="Times,serif" font-size="14.00">65</text>
</g>
<!-- 65&#45;&#45;66 -->
<g id="edge50" class="edge">
<title>65&#45;&#45;66</title>
<path fill="none" stroke="black" d="M259.88,-49.95C265.25,-54.75 271.21,-60.08 276.56,-64.87"/>
</g>
<!-- 32 -->
<g id="node61" class="node">
<title>32</title>
<ellipse fill="none" stroke="black" cx="517.13" cy="-377.37" rx="27" ry="18"/>
<text text-anchor="middle" x="517.13" y="-373.67" font-family="Times,serif" font-size="14.00">32</text>
</g>
<!-- 64 -->
<g id="node62" class="node">
<title>64</title>
<ellipse fill="none" stroke="black" cx="454.94" cy="-346.71" rx="27" ry="18"/>
<text text-anchor="middle" x="454.94" y="-343.01" font-family="Times,serif" font-size="14.00">64</text>
</g>
<!-- 32&#45;&#45;64 -->
<g id="edge52" class="edge">
<title>32&#45;&#45;64</title>
<path fill="none" stroke="black" d="M495.38,-366.65C489.35,-363.67 482.81,-360.45 476.78,-357.48"/>
</g>
<!-- 48 -->
<g id="node71" class="node">
<title>48</title>
<ellipse fill="none" stroke="black" cx="518.98" cy="-422.08" rx="27" ry="18"/>
<text text-anchor="middle" x="518.98" y="-418.38" font-family="Times,serif" font-size="14.00">48</text>
</g>
<!-- 32&#45;&#45;48 -->
<g id="edge63" class="edge">
<title>32&#45;&#45;48</title>
<path fill="none" stroke="black" d="M517.89,-395.56C518,-398.36 518.12,-401.25 518.24,-404.06"/>
</g>
<!-- 64&#45;&#45;80 -->
<g id="edge53" class="edge">
<title>64&#45;&#45;80</title>
<path fill="none" stroke="black" d="M434.96,-334.2C427.87,-329.77 419.9,-324.77 412.81,-320.34"/>
</g>
<!-- 80&#45;&#45;88 -->
<g id="edge57" class="edge">
<title>80&#45;&#45;88</title>
<path fill="none" stroke="black" d="M369.63,-317.51C364.37,-319.7 358.77,-322.03 353.51,-324.21"/>
</g>
<!-- 77 -->
<g id="node64" class="node">
<title>77</title>
<ellipse fill="none" stroke="black" cx="439.77" cy="-52.31" rx="27" ry="18"/>
<text text-anchor="middle" x="439.77" y="-48.61" font-family="Times,serif" font-size="14.00">77</text>
</g>
<!-- 77&#45;&#45;78 -->
<g id="edge54" class="edge">
<title>77&#45;&#45;78</title>
<path fill="none" stroke="black" d="M422.81,-66.48C416.79,-71.51 410.02,-77.16 404.01,-82.19"/>
</g>
<!-- 79 -->
<g id="node66" class="node">
<title>79</title>
<ellipse fill="none" stroke="black" cx="376.9" cy="-33.38" rx="27" ry="18"/>
<text text-anchor="middle" x="376.9" y="-29.68" font-family="Times,serif" font-size="14.00">79</text>
</g>
<!-- 78&#45;&#45;79 -->
<g id="edge55" class="edge">
<title>78&#45;&#45;79</title>
<path fill="none" stroke="black" d="M384.14,-78.12C382.78,-69.7 381.16,-59.72 379.81,-51.33"/>
</g>
<!-- 88&#45;&#45;96 -->
<g id="edge75" class="edge">
<title>88&#45;&#45;96</title>
<path fill="none" stroke="black" d="M308.79,-344.95C301.1,-348.91 292.45,-353.37 284.76,-357.33"/>
</g>
<!-- 36&#45;&#45;38 -->
<g id="edge59" class="edge">
<title>36&#45;&#45;38</title>
<path fill="none" stroke="black" d="M626.61,-571.62C626.98,-574.18 627.37,-576.81 627.74,-579.37"/>
</g>
<!-- 40 -->
<g id="node83" class="node">
<title>40</title>
<ellipse fill="none" stroke="black" cx="581.2" cy="-463.68" rx="27" ry="18"/>
<text text-anchor="middle" x="581.2" y="-459.98" font-family="Times,serif" font-size="14.00">40</text>
</g>
<!-- 36&#45;&#45;40 -->
<g id="edge80" class="edge">
<title>36&#45;&#45;40</title>
<path fill="none" stroke="black" d="M615.71,-536.15C608.14,-520.25 596.98,-496.82 589.42,-480.94"/>
</g>
<!-- 74 -->
<g id="node69" class="node">
<title>74</title>
<ellipse fill="none" stroke="black" cx="379.08" cy="-189.9" rx="27" ry="18"/>
<text text-anchor="middle" x="379.08" y="-186.2" font-family="Times,serif" font-size="14.00">74</text>
</g>
<!-- 74&#45;&#45;76 -->
<g id="edge60" class="edge">
<title>74&#45;&#45;76</title>
<path fill="none" stroke="black" d="M352.03,-192.36C347.63,-192.76 343.08,-193.18 338.68,-193.58"/>
</g>
<!-- 75 -->
<g id="node100" class="node">
<title>75</title>
<ellipse fill="none" stroke="black" cx="421.04" cy="-240.61" rx="27" ry="18"/>
<text text-anchor="middle" x="421.04" y="-236.91" font-family="Times,serif" font-size="14.00">75</text>
</g>
<!-- 74&#45;&#45;75 -->
<g id="edge99" class="edge">
<title>74&#45;&#45;75</title>
<path fill="none" stroke="black" d="M392.13,-205.67C397.13,-211.71 402.84,-218.61 407.86,-224.68"/>
</g>
<!-- 16&#45;&#45;32 -->
<g id="edge62" class="edge">
<title>16&#45;&#45;32</title>
<path fill="none" stroke="black" d="M531.23,-334.61C528.65,-342.43 525.63,-351.59 523.05,-359.43"/>
</g>
<!-- 24 -->
<g id="node84" class="node">
<title>24</title>
<ellipse fill="none" stroke="black" cx="679.24" cy="-248.56" rx="27" ry="18"/>
<text text-anchor="middle" x="679.24" y="-244.86" font-family="Times,serif" font-size="14.00">24</text>
</g>
<!-- 16&#45;&#45;24 -->
<g id="edge85" class="edge">
<title>16&#45;&#45;24</title>
<path fill="none" stroke="black" d="M559.33,-306.09C586.03,-293.28 630.56,-271.91 657.19,-259.14"/>
</g>
<!-- 48&#45;&#45;56 -->
<g id="edge77" class="edge">
<title>48&#45;&#45;56</title>
<path fill="none" stroke="black" d="M519.03,-440.29C519.05,-450.05 519.08,-462.02 519.1,-471.78"/>
</g>
<!-- 57 -->
<g id="node72" class="node">
<title>57</title>
<ellipse fill="none" stroke="black" cx="402.75" cy="-702.16" rx="27" ry="18"/>
<text text-anchor="middle" x="402.75" y="-698.46" font-family="Times,serif" font-size="14.00">57</text>
</g>
<!-- 58 -->
<g id="node73" class="node">
<title>58</title>
<ellipse fill="none" stroke="black" cx="417.28" cy="-630.06" rx="27" ry="18"/>
<text text-anchor="middle" x="417.28" y="-626.36" font-family="Times,serif" font-size="14.00">58</text>
</g>
<!-- 57&#45;&#45;58 -->
<g id="edge64" class="edge">
<title>57&#45;&#45;58</title>
<path fill="none" stroke="black" d="M406.42,-683.97C408.64,-672.96 411.46,-658.97 413.67,-648"/>
</g>
<!-- 58&#45;&#45;60 -->
<g id="edge68" class="edge">
<title>58&#45;&#45;60</title>
<path fill="none" stroke="black" d="M432.67,-615.2C441.22,-606.94 451.82,-596.71 460.38,-588.44"/>
</g>
<!-- 59 -->
<g id="node74" class="node">
<title>59</title>
<ellipse fill="none" stroke="black" cx="343.04" cy="-658" rx="27" ry="18"/>
<text text-anchor="middle" x="343.04" y="-654.3" font-family="Times,serif" font-size="14.00">59</text>
</g>
<!-- 58&#45;&#45;59 -->
<g id="edge65" class="edge">
<title>58&#45;&#45;59</title>
<path fill="none" stroke="black" d="M393.38,-639.06C384.82,-642.28 375.18,-645.91 366.64,-649.12"/>
</g>
<!-- 26 -->
<g id="node75" class="node">
<title>26</title>
<ellipse fill="none" stroke="black" cx="793.29" cy="-160.51" rx="27" ry="18"/>
<text text-anchor="middle" x="793.29" y="-156.81" font-family="Times,serif" font-size="14.00">26</text>
</g>
<!-- 28 -->
<g id="node76" class="node">
<title>28</title>
<ellipse fill="none" stroke="black" cx="737.57" cy="-204.53" rx="27" ry="18"/>
<text text-anchor="middle" x="737.57" y="-200.83" font-family="Times,serif" font-size="14.00">28</text>
</g>
<!-- 26&#45;&#45;28 -->
<g id="edge66" class="edge">
<title>26&#45;&#45;28</title>
<path fill="none" stroke="black" d="M775.66,-174.44C769.15,-179.57 761.79,-185.4 755.28,-190.54"/>
</g>
<!-- 27 -->
<g id="node94" class="node">
<title>27</title>
<ellipse fill="none" stroke="black" cx="856.24" cy="-148.52" rx="27" ry="18"/>
<text text-anchor="middle" x="856.24" y="-144.82" font-family="Times,serif" font-size="14.00">27</text>
</g>
<!-- 26&#45;&#45;27 -->
<g id="edge93" class="edge">
<title>26&#45;&#45;27</title>
<path fill="none" stroke="black" d="M819.26,-155.56C822.78,-154.89 826.4,-154.2 829.93,-153.53"/>
</g>
<!-- 30 -->
<g id="node77" class="node">
<title>30</title>
<ellipse fill="none" stroke="black" cx="725.28" cy="-127.57" rx="27" ry="18"/>
<text text-anchor="middle" x="725.28" y="-123.87" font-family="Times,serif" font-size="14.00">30</text>
</g>
<!-- 28&#45;&#45;30 -->
<g id="edge67" class="edge">
<title>28&#45;&#45;30</title>
<path fill="none" stroke="black" d="M734.66,-186.29C732.7,-174.02 730.13,-157.92 728.17,-145.68"/>
</g>
<!-- 31 -->
<g id="node88" class="node">
<title>31</title>
<ellipse fill="none" stroke="black" cx="767.39" cy="-73.7" rx="27" ry="18"/>
<text text-anchor="middle" x="767.39" y="-70" font-family="Times,serif" font-size="14.00">31</text>
</g>
<!-- 30&#45;&#45;31 -->
<g id="edge87" class="edge">
<title>30&#45;&#45;31</title>
<path fill="none" stroke="black" d="M737.91,-111.41C743.24,-104.59 749.44,-96.67 754.76,-89.85"/>
</g>
<!-- 63 -->
<g id="node90" class="node">
<title>63</title>
<ellipse fill="none" stroke="black" cx="464.79" cy="-700.61" rx="27" ry="18"/>
<text text-anchor="middle" x="464.79" y="-696.91" font-family="Times,serif" font-size="14.00">63</text>
</g>
<!-- 62&#45;&#45;63 -->
<g id="edge89" class="edge">
<title>62&#45;&#45;63</title>
<path fill="none" stroke="black" d="M476.76,-647.64C474.35,-658.3 471.3,-671.79 468.89,-682.49"/>
</g>
<!-- 22 -->
<g id="node80" class="node">
<title>22</title>
<ellipse fill="none" stroke="black" cx="862.97" cy="-238.97" rx="27" ry="18"/>
<text text-anchor="middle" x="862.97" y="-235.27" font-family="Times,serif" font-size="14.00">22</text>
</g>
<!-- 20&#45;&#45;22 -->
<g id="edge71" class="edge">
<title>20&#45;&#45;22</title>
<path fill="none" stroke="black" d="M809.01,-248.56C817.88,-246.99 827.77,-245.23 836.64,-243.65"/>
</g>
<!-- 20&#45;&#45;24 -->
<g id="edge78" class="edge">
<title>20&#45;&#45;24</title>
<path fill="none" stroke="black" d="M755.55,-252.01C740.33,-251.32 721.43,-250.46 706.25,-249.78"/>
</g>
<!-- 23 -->
<g id="node96" class="node">
<title>23</title>
<ellipse fill="none" stroke="black" cx="928.06" cy="-239.15" rx="27" ry="18"/>
<text text-anchor="middle" x="928.06" y="-235.45" font-family="Times,serif" font-size="14.00">23</text>
</g>
<!-- 22&#45;&#45;23 -->
<g id="edge95" class="edge">
<title>22&#45;&#45;23</title>
<path fill="none" stroke="black" d="M890.2,-239.05C893.68,-239.06 897.25,-239.07 900.73,-239.08"/>
</g>
<!-- 5 -->
<g id="node81" class="node">
<title>5</title>
<ellipse fill="none" stroke="black" cx="640.89" cy="-92.88" rx="27" ry="18"/>
<text text-anchor="middle" x="640.89" y="-89.18" font-family="Times,serif" font-size="14.00">5</text>
</g>
<!-- 5&#45;&#45;6 -->
<g id="edge72" class="edge">
<title>5&#45;&#45;6</title>
<path fill="none" stroke="black" d="M628.43,-108.87C625.34,-112.84 622.02,-117.09 618.93,-121.06"/>
</g>
<!-- 40&#45;&#45;44 -->
<g id="edge81" class="edge">
<title>40&#45;&#45;44</title>
<path fill="none" stroke="black" d="M607.61,-467.71C611.9,-468.37 616.35,-469.05 620.65,-469.7"/>
</g>
<!-- 40&#45;&#45;48 -->
<g id="edge76" class="edge">
<title>40&#45;&#45;48</title>
<path fill="none" stroke="black" d="M561.85,-450.74C554.29,-445.69 545.64,-439.91 538.1,-434.86"/>
</g>
<!-- 24&#45;&#45;28 -->
<g id="edge79" class="edge">
<title>24&#45;&#45;28</title>
<path fill="none" stroke="black" d="M697.38,-234.87C704.47,-229.51 712.58,-223.39 719.65,-218.06"/>
</g>
<!-- 13 -->
<g id="node85" class="node">
<title>13</title>
<ellipse fill="none" stroke="black" cx="749.7" cy="-312.21" rx="27" ry="18"/>
<text text-anchor="middle" x="749.7" y="-308.51" font-family="Times,serif" font-size="14.00">13</text>
</g>
<!-- 13&#45;&#45;14 -->
<g id="edge82" class="edge">
<title>13&#45;&#45;14</title>
<path fill="none" stroke="black" d="M722.53,-313.21C719.9,-313.31 717.24,-313.41 714.61,-313.5"/>
</g>
<!-- 29 -->
<g id="node87" class="node">
<title>29</title>
<ellipse fill="none" stroke="black" cx="704.38" cy="-79.19" rx="27" ry="18"/>
<text text-anchor="middle" x="704.38" y="-75.49" font-family="Times,serif" font-size="14.00">29</text>
</g>
<!-- 29&#45;&#45;30 -->
<g id="edge86" class="edge">
<title>29&#45;&#45;30</title>
<path fill="none" stroke="black" d="M711.93,-96.66C713.8,-100.99 715.8,-105.63 717.67,-109.97"/>
</g>
<!-- 61 -->
<g id="node89" class="node">
<title>61</title>
<ellipse fill="none" stroke="black" cx="526.81" cy="-678.43" rx="27" ry="18"/>
<text text-anchor="middle" x="526.81" y="-674.73" font-family="Times,serif" font-size="14.00">61</text>
</g>
<!-- 61&#45;&#45;62 -->
<g id="edge88" class="edge">
<title>61&#45;&#45;62</title>
<path fill="none" stroke="black" d="M512.25,-663.03C506.88,-657.35 500.79,-650.92 495.42,-645.23"/>
</g>
<!-- 85 -->
<g id="node91" class="node">
<title>85</title>
<ellipse fill="none" stroke="black" cx="249.59" cy="-211.97" rx="27" ry="18"/>
<text text-anchor="middle" x="249.59" y="-208.27" font-family="Times,serif" font-size="14.00">85</text>
</g>
<!-- 85&#45;&#45;86 -->
<g id="edge90" class="edge">
<title>85&#45;&#45;86</title>
<path fill="none" stroke="black" d="M243.18,-229.47C242.08,-232.47 240.94,-235.59 239.84,-238.59"/>
</g>
<!-- 25 -->
<g id="node93" class="node">
<title>25</title>
<ellipse fill="none" stroke="black" cx="830.27" cy="-103.93" rx="27" ry="18"/>
<text text-anchor="middle" x="830.27" y="-100.23" font-family="Times,serif" font-size="14.00">25</text>
</g>
<!-- 25&#45;&#45;26 -->
<g id="edge92" class="edge">
<title>25&#45;&#45;26</title>
<path fill="none" stroke="black" d="M819.37,-120.6C814.6,-127.9 809.01,-136.45 804.23,-143.76"/>
</g>
<!-- 21 -->
<g id="node95" class="node">
<title>21</title>
<ellipse fill="none" stroke="black" cx="904.39" cy="-194.87" rx="27" ry="18"/>
<text text-anchor="middle" x="904.39" y="-191.17" font-family="Times,serif" font-size="14.00">21</text>
</g>
<!-- 21&#45;&#45;22 -->
<g id="edge94" class="edge">
<title>21&#45;&#45;22</title>
<path fill="none" stroke="black" d="M889.91,-210.29C885.89,-214.56 881.54,-219.2 877.52,-223.48"/>
</g>
<!-- 49 -->
<g id="node97" class="node">
<title>49</title>
<ellipse fill="none" stroke="black" cx="357.58" cy="-454.62" rx="27" ry="18"/>
<text text-anchor="middle" x="357.58" y="-450.92" font-family="Times,serif" font-size="14.00">49</text>
</g>
<!-- 49&#45;&#45;50 -->
<g id="edge96" class="edge">
<title>49&#45;&#45;50</title>
<path fill="none" stroke="black" d="M370.18,-470.58C373.3,-474.54 376.65,-478.78 379.77,-482.74"/>
</g>
<!-- 73 -->
<g id="node99" class="node">
<title>73</title>
<ellipse fill="none" stroke="black" cx="431.1" cy="-140.36" rx="27" ry="18"/>
<text text-anchor="middle" x="431.1" y="-136.66" font-family="Times,serif" font-size="14.00">73</text>
</g>
<!-- 73&#45;&#45;74 -->
<g id="edge98" class="edge">
<title>73&#45;&#45;74</title>
<path fill="none" stroke="black" d="M415.49,-155.22C408.9,-161.49 401.26,-168.78 394.67,-175.05"/>
</g>
</g>
</svg>
